solid pixelfacet normal 0 0.9999956928187382 -0.002935020267680624 
outer loop 
vertex -5 4.746875762939453 4.913551330566406 
vertex 5 4.746875762939453 4.913551330566406 
vertex 5 4.742794036865234 3.522859573364258 
endloop 
endfacet 
facet normal 0 0.9999956928187382 -0.002935020267680624 
outer loop 
vertex -5 4.746875762939453 4.913551330566406 
vertex 5 4.742794036865234 3.522859573364258 
vertex -5 4.742794036865234 3.522859573364258 
endloop 
endfacet 
facet normal 0 0.9998994686830996 -0.014179299251193295 
outer loop 
vertex -5 4.742794036865234 3.522859573364258 
vertex 5 4.742794036865234 3.522859573364258 
vertex 5 4.723074913024902 2.1323013305664062 
endloop 
endfacet 
facet normal 0 0.9998994686830996 -0.014179299251193295 
outer loop 
vertex -5 4.742794036865234 3.522859573364258 
vertex 5 4.723074913024902 2.1323013305664062 
vertex -5 4.723074913024902 2.1323013305664062 
endloop 
endfacet 
facet normal 0 0.9996768386237701 -0.025420824518194874 
outer loop 
vertex -5 4.723074913024902 2.1323013305664062 
vertex 5 4.723074913024902 2.1323013305664062 
vertex 5 4.687722206115723 0.7420520782470703 
endloop 
endfacet 
facet normal 0 0.9996768386237701 -0.025420824518194874 
outer loop 
vertex -5 4.723074913024902 2.1323013305664062 
vertex 5 4.687722206115723 0.7420520782470703 
vertex -5 4.687722206115723 0.7420520782470703 
endloop 
endfacet 
facet normal 0 0.9993278095160806 -0.03665963894792472 
outer loop 
vertex -5 4.687722206115723 0.7420520782470703 
vertex 5 4.687722206115723 0.7420520782470703 
vertex 5 4.636739730834961 -0.6477108001708984 
endloop 
endfacet 
facet normal 0 0.9993278095160806 -0.03665963894792472 
outer loop 
vertex -5 4.687722206115723 0.7420520782470703 
vertex 5 4.636739730834961 -0.6477108001708984 
vertex -5 4.636739730834961 -0.6477108001708984 
endloop 
endfacet 
facet normal 0 0.9988524401606547 -0.04789366122051842 
outer loop 
vertex -5 4.636739730834961 -0.6477108001708984 
vertex 5 4.636739730834961 -0.6477108001708984 
vertex 5 4.570134162902832 -2.0368118286132812 
endloop 
endfacet 
facet normal 0 0.9988524401606547 -0.04789366122051842 
outer loop 
vertex -5 4.636739730834961 -0.6477108001708984 
vertex 5 4.570134162902832 -2.0368118286132812 
vertex -5 4.570134162902832 -2.0368118286132812 
endloop 
endfacet 
facet normal 0 0.9982507955840683 -0.059121477618332925 
outer loop 
vertex -5 4.570134162902832 -2.0368118286132812 
vertex 5 4.570134162902832 -2.0368118286132812 
vertex 5 4.487914085388184 -3.425076484680176 
endloop 
endfacet 
facet normal 0 0.9982507955840683 -0.059121477618332925 
outer loop 
vertex -5 4.570134162902832 -2.0368118286132812 
vertex 5 4.487914085388184 -3.425076484680176 
vertex -5 4.487914085388184 -3.425076484680176 
endloop 
endfacet 
facet normal 0 0.9975229516511032 -0.07034174386003654 
outer loop 
vertex -5 4.487914085388184 -3.425076484680176 
vertex 5 4.487914085388184 -3.425076484680176 
vertex 5 4.390089988708496 -4.812329292297363 
endloop 
endfacet 
facet normal 0 0.9975229516511032 -0.07034174386003654 
outer loop 
vertex -5 4.487914085388184 -3.425076484680176 
vertex 5 4.390089988708496 -4.812329292297363 
vertex -5 4.390089988708496 -4.812329292297363 
endloop 
endfacet 
facet normal 0 0.9966689382543544 -0.08155383203098221 
outer loop 
vertex -5 4.390089988708496 -4.812329292297363 
vertex 5 4.390089988708496 -4.812329292297363 
vertex 5 4.276673316955566 -6.198393821716309 
endloop 
endfacet 
facet normal 0 0.9966689382543544 -0.08155383203098221 
outer loop 
vertex -5 4.390089988708496 -4.812329292297363 
vertex 5 4.276673316955566 -6.198393821716309 
vertex -5 4.276673316955566 -6.198393821716309 
endloop 
endfacet 
facet normal 0 0.9956889762848646 -0.0927548516509965 
outer loop 
vertex -5 4.276673316955566 -6.198393821716309 
vertex 5 4.276673316955566 -6.198393821716309 
vertex 5 4.147679328918457 -7.583096504211426 
endloop 
endfacet 
facet normal 0 0.9956889762848646 -0.0927548516509965 
outer loop 
vertex -5 4.276673316955566 -6.198393821716309 
vertex 5 4.147679328918457 -7.583096504211426 
vertex -5 4.147679328918457 -7.583096504211426 
endloop 
endfacet 
facet normal 0 0.9945831200798215 -0.1039442987964579 
outer loop 
vertex -5 4.147679328918457 -7.583096504211426 
vertex 5 4.147679328918457 -7.583096504211426 
vertex 5 4.003124237060547 -8.96626091003418 
endloop 
endfacet 
facet normal 0 0.9945831200798215 -0.1039442987964579 
outer loop 
vertex -5 4.147679328918457 -7.583096504211426 
vertex 5 4.003124237060547 -8.96626091003418 
vertex -5 4.003124237060547 -8.96626091003418 
endloop 
endfacet 
facet normal 0 0 -1 
outer loop 
vertex -5 -4.746875762939453 -8.96626091003418 
vertex -5 4.003124237060547 -8.96626091003418 
vertex 5 -4.746875762939453 -8.96626091003418 
endloop 
endfacet 
facet normal 0 0 -1 
outer loop 
vertex 5 -4.746875762939453 -8.96626091003418 
vertex -5 4.003124237060547 -8.96626091003418 
vertex 5 4.003124237060547 -8.96626091003418 
endloop 
endfacet 
facet normal 0 -0.9999999999999999 0 
outer loop 
vertex -5 -4.746875762939453 8.96626091003418 
vertex -5 -4.746875762939453 -8.96626091003418 
vertex 5 -4.746875762939453 8.96626091003418 
endloop 
endfacet 
facet normal 0 -0.9999999999999999 0 
outer loop 
vertex 5 -4.746875762939453 8.96626091003418 
vertex -5 -4.746875762939453 -8.96626091003418 
vertex 5 -4.746875762939453 -8.96626091003418 
endloop 
endfacet 
facet normal 0 0 1 
outer loop 
vertex -5 4.003124237060547 8.96626091003418 
vertex -5 -4.746875762939453 8.96626091003418 
vertex 5 4.003124237060547 8.96626091003418 
endloop 
endfacet 
facet normal 0 0 1 
outer loop 
vertex 5 4.003124237060547 8.96626091003418 
vertex -5 -4.746875762939453 8.96626091003418 
vertex 5 -4.746875762939453 8.96626091003418 
endloop 
endfacet 
facet normal 0 0.9961815678101352 0.08730569257122316 
outer loop 
vertex -5 4.003124237060547 8.96626091003418 
vertex 5 4.003124237060547 8.96626091003418 
vertex -5 4.01701545715332 8.807758331298828 
endloop 
endfacet 
facet normal 0 0.9961815678101352 0.08730569257122316 
outer loop 
vertex -5 4.01701545715332 8.807758331298828 
vertex 5 4.003124237060547 8.96626091003418 
vertex 5 4.01701545715332 8.807758331298828 
endloop 
endfacet 
facet normal 0 0.9866919762615807 0.16260056574629847 
outer loop 
vertex -5 4.01701545715332 8.807758331298828 
vertex 5 4.01701545715332 8.807758331298828 
vertex -5 4.042886734008789 8.650766372680664 
endloop 
endfacet 
facet normal 0 0.9866919762615807 0.16260056574629847 
outer loop 
vertex -5 4.042886734008789 8.650766372680664 
vertex 5 4.01701545715332 8.807758331298828 
vertex 5 4.042886734008789 8.650766372680664 
endloop 
endfacet 
facet normal 0 0.9715164347509884 0.23697218615003812 
outer loop 
vertex -5 4.042886734008789 8.650766372680664 
vertex 5 4.042886734008789 8.650766372680664 
vertex -5 4.080591201782227 8.49618911743164 
endloop 
endfacet 
facet normal 0 0.9715164347509884 0.23697218615003812 
outer loop 
vertex -5 4.080591201782227 8.49618911743164 
vertex 5 4.042886734008789 8.650766372680664 
vertex 5 4.080591201782227 8.49618911743164 
endloop 
endfacet 
facet normal 0 0.9507496544897297 0.30995982721581783 
outer loop 
vertex -5 4.080591201782227 8.49618911743164 
vertex 5 4.080591201782227 8.49618911743164 
vertex -5 4.129909515380859 8.344913482666016 
endloop 
endfacet 
facet normal 0 0.9507496544897297 0.30995982721581783 
outer loop 
vertex -5 4.129909515380859 8.344913482666016 
vertex 5 4.080591201782227 8.49618911743164 
vertex 5 4.129909515380859 8.344913482666016 
endloop 
endfacet 
facet normal 0 0.9448537837837178 0.3274924842948179 
outer loop 
vertex -5 4.129909515380859 8.344913482666016 
vertex 5 4.129909515380859 8.344913482666016 
vertex 5 4.257415771484375 7.977043151855469 
endloop 
endfacet 
facet normal 0 0.9448537837837178 0.3274924842948179 
outer loop 
vertex -5 4.129909515380859 8.344913482666016 
vertex 5 4.257415771484375 7.977043151855469 
vertex -5 4.257415771484375 7.977043151855469 
endloop 
endfacet 
facet normal 0 0.9568858773262789 0.2904641419754209 
outer loop 
vertex -5 4.257415771484375 7.977043151855469 
vertex 5 4.257415771484375 7.977043151855469 
vertex 5 4.370505332946777 7.604488372802734 
endloop 
endfacet 
facet normal 0 0.9568858773262789 0.2904641419754209 
outer loop 
vertex -5 4.257415771484375 7.977043151855469 
vertex 5 4.370505332946777 7.604488372802734 
vertex -5 4.370505332946777 7.604488372802734 
endloop 
endfacet 
facet normal 0 0.9674685511861454 0.2529913090716377 
outer loop 
vertex -5 4.370505332946777 7.604488372802734 
vertex 5 4.370505332946777 7.604488372802734 
vertex 5 4.469005584716797 7.227811813354492 
endloop 
endfacet 
facet normal 0 0.9674685511861454 0.2529913090716377 
outer loop 
vertex -5 4.370505332946777 7.604488372802734 
vertex 5 4.469005584716797 7.227811813354492 
vertex -5 4.469005584716797 7.227811813354492 
endloop 
endfacet 
facet normal 0 0.9765823547536864 0.2151439155164401 
outer loop 
vertex -5 4.469005584716797 7.227811813354492 
vertex 5 4.469005584716797 7.227811813354492 
vertex 5 4.552769660949707 6.847589492797852 
endloop 
endfacet 
facet normal 0 0.9765823547536864 0.2151439155164401 
outer loop 
vertex -5 4.469005584716797 7.227811813354492 
vertex 5 4.552769660949707 6.847589492797852 
vertex -5 4.552769660949707 6.847589492797852 
endloop 
endfacet 
facet normal 0 0.9842173856136103 0.1769636625296555 
outer loop 
vertex -5 4.552769660949707 6.847589492797852 
vertex 5 4.552769660949707 6.847589492797852 
vertex 5 4.621668815612793 6.464393615722656 
endloop 
endfacet 
facet normal 0 0.9842173856136103 0.1769636625296555 
outer loop 
vertex -5 4.552769660949707 6.847589492797852 
vertex 5 4.621668815612793 6.464393615722656 
vertex -5 4.621668815612793 6.464393615722656 
endloop 
endfacet 
facet normal 0 0.9903598328109406 0.13851859642187253 
outer loop 
vertex -5 4.621668815612793 6.464393615722656 
vertex 5 4.621668815612793 6.464393615722656 
vertex 5 4.675600051879883 6.078804016113281 
endloop 
endfacet 
facet normal 0 0.9903598328109406 0.13851859642187253 
outer loop 
vertex -5 4.621668815612793 6.464393615722656 
vertex 5 4.675600051879883 6.078804016113281 
vertex -5 4.675600051879883 6.078804016113281 
endloop 
endfacet 
facet normal 0 0.9950015244132098 0.09985973370377471 
outer loop 
vertex -5 4.675600051879883 6.078804016113281 
vertex 5 4.675600051879883 6.078804016113281 
vertex 5 4.714479446411133 5.691410064697266 
endloop 
endfacet 
facet normal 0 0.9950015244132098 0.09985973370377471 
outer loop 
vertex -5 4.675600051879883 6.078804016113281 
vertex 5 4.714479446411133 5.691410064697266 
vertex -5 4.714479446411133 5.691410064697266 
endloop 
endfacet 
facet normal 0 0.9981343921837459 0.061055181106799764 
outer loop 
vertex -5 4.714479446411133 5.691410064697266 
vertex 5 4.714479446411133 5.691410064697266 
vertex 5 4.738250732421875 5.30279541015625 
endloop 
endfacet 
facet normal 0 0.9981343921837459 0.061055181106799764 
outer loop 
vertex -5 4.714479446411133 5.691410064697266 
vertex 5 4.738250732421875 5.30279541015625 
vertex -5 4.738250732421875 5.30279541015625 
endloop 
endfacet 
facet normal 0 0.9997545927649342 0.022152973737642016 
outer loop 
vertex -5 4.738250732421875 5.30279541015625 
vertex 5 4.738250732421875 5.30279541015625 
vertex 5 4.746875762939453 4.913551330566406 
endloop 
endfacet 
facet normal 0 0.9997545927649342 0.022152973737642016 
outer loop 
vertex -5 4.738250732421875 5.30279541015625 
vertex 5 4.746875762939453 4.913551330566406 
vertex -5 4.746875762939453 4.913551330566406 
endloop 
endfacet 
facet normal -0.9999999999999999 0 0 
outer loop 
vertex -5 4.003124237060547 8.96626091003418 
vertex -5 4.01701545715332 8.807758331298828 
vertex -5 -4.746875762939453 8.96626091003418 
endloop 
endfacet 
facet normal -1 0 0 
outer loop 
vertex -5 -4.746875762939453 8.96626091003418 
vertex -5 4.01701545715332 8.807758331298828 
vertex -5 4.042886734008789 8.650766372680664 
endloop 
endfacet 
facet normal -0.9999999999999999 0 0 
outer loop 
vertex -5 4.742794036865234 3.522859573364258 
vertex -5 4.723074913024902 2.1323013305664062 
vertex -5 -4.746875762939453 8.96626091003418 
endloop 
endfacet 
facet normal -1 0 0 
outer loop 
vertex -5 4.487914085388184 -3.425076484680176 
vertex -5 4.390089988708496 -4.812329292297363 
vertex -5 -4.746875762939453 -8.96626091003418 
endloop 
endfacet 
facet normal -1 0 0 
outer loop 
vertex -5 4.390089988708496 -4.812329292297363 
vertex -5 4.276673316955566 -6.198393821716309 
vertex -5 -4.746875762939453 -8.96626091003418 
endloop 
endfacet 
facet normal -1 0 0 
outer loop 
vertex -5 -4.746875762939453 -8.96626091003418 
vertex -5 4.276673316955566 -6.198393821716309 
vertex -5 4.147679328918457 -7.583096504211426 
endloop 
endfacet 
facet normal -1 0 0 
outer loop 
vertex -5 -4.746875762939453 -8.96626091003418 
vertex -5 4.147679328918457 -7.583096504211426 
vertex -5 4.003124237060547 -8.96626091003418 
endloop 
endfacet 
facet normal -1 0 0 
outer loop 
vertex -5 4.042886734008789 8.650766372680664 
vertex -5 4.080591201782227 8.49618911743164 
vertex -5 -4.746875762939453 8.96626091003418 
endloop 
endfacet 
facet normal -1 0 0 
outer loop 
vertex -5 -4.746875762939453 8.96626091003418 
vertex -5 4.080591201782227 8.49618911743164 
vertex -5 4.129909515380859 8.344913482666016 
endloop 
endfacet 
facet normal -1 0 0 
outer loop 
vertex -5 -4.746875762939453 8.96626091003418 
vertex -5 4.129909515380859 8.344913482666016 
vertex -5 4.257415771484375 7.977043151855469 
endloop 
endfacet 
facet normal -1 0 0 
outer loop 
vertex -5 4.714479446411133 5.691410064697266 
vertex -5 4.738250732421875 5.30279541015625 
vertex -5 -4.746875762939453 8.96626091003418 
endloop 
endfacet 
facet normal -1 0 0 
outer loop 
vertex -5 -4.746875762939453 8.96626091003418 
vertex -5 4.738250732421875 5.30279541015625 
vertex -5 4.746875762939453 4.913551330566406 
endloop 
endfacet 
facet normal -1 0 0 
outer loop 
vertex -5 -4.746875762939453 8.96626091003418 
vertex -5 4.746875762939453 4.913551330566406 
vertex -5 4.742794036865234 3.522859573364258 
endloop 
endfacet 
facet normal -0.9999999999999999 0 0 
outer loop 
vertex -5 4.723074913024902 2.1323013305664062 
vertex -5 4.687722206115723 0.7420520782470703 
vertex -5 -4.746875762939453 8.96626091003418 
endloop 
endfacet 
facet normal -0.9999999999999999 0 0 
outer loop 
vertex -5 -4.746875762939453 8.96626091003418 
vertex -5 4.687722206115723 0.7420520782470703 
vertex -5 4.636739730834961 -0.6477108001708984 
endloop 
endfacet 
facet normal -1 0 0 
outer loop 
vertex -5 -4.746875762939453 8.96626091003418 
vertex -5 4.636739730834961 -0.6477108001708984 
vertex -5 -4.746875762939453 -8.96626091003418 
endloop 
endfacet 
facet normal -1 0 0 
outer loop 
vertex -5 -4.746875762939453 -8.96626091003418 
vertex -5 4.636739730834961 -0.6477108001708984 
vertex -5 4.570134162902832 -2.0368118286132812 
endloop 
endfacet 
facet normal -0.9999999999999999 0 0 
outer loop 
vertex -5 -4.746875762939453 -8.96626091003418 
vertex -5 4.570134162902832 -2.0368118286132812 
vertex -5 4.487914085388184 -3.425076484680176 
endloop 
endfacet 
facet normal -0.9999999999999999 0 0 
outer loop 
vertex -5 4.257415771484375 7.977043151855469 
vertex -5 4.370505332946777 7.604488372802734 
vertex -5 -4.746875762939453 8.96626091003418 
endloop 
endfacet 
facet normal -1 0 0 
outer loop 
vertex -5 -4.746875762939453 8.96626091003418 
vertex -5 4.370505332946777 7.604488372802734 
vertex -5 4.469005584716797 7.227811813354492 
endloop 
endfacet 
facet normal -1 0 0 
outer loop 
vertex -5 -4.746875762939453 8.96626091003418 
vertex -5 4.469005584716797 7.227811813354492 
vertex -5 4.552769660949707 6.847589492797852 
endloop 
endfacet 
facet normal -1 0 0 
outer loop 
vertex -5 4.552769660949707 6.847589492797852 
vertex -5 4.621668815612793 6.464393615722656 
vertex -5 -4.746875762939453 8.96626091003418 
endloop 
endfacet 
facet normal -0.9999999999999999 0 0 
outer loop 
vertex -5 -4.746875762939453 8.96626091003418 
vertex -5 4.621668815612793 6.464393615722656 
vertex -5 4.675600051879883 6.078804016113281 
endloop 
endfacet 
facet normal -1 0 0 
outer loop 
vertex -5 -4.746875762939453 8.96626091003418 
vertex -5 4.675600051879883 6.078804016113281 
vertex -5 4.714479446411133 5.691410064697266 
endloop 
endfacet 
facet normal 0.9999999999999999 0 0 
outer loop 
vertex 5 4.01701545715332 8.807758331298828 
vertex 5 4.003124237060547 8.96626091003418 
vertex 5 -4.746875762939453 8.96626091003418 
endloop 
endfacet 
facet normal 1 0 0 
outer loop 
vertex 5 4.129909515380859 8.344913482666016 
vertex 5 4.080591201782227 8.49618911743164 
vertex 5 -4.746875762939453 8.96626091003418 
endloop 
endfacet 
facet normal 1 0 0 
outer loop 
vertex 5 -4.746875762939453 8.96626091003418 
vertex 5 4.080591201782227 8.49618911743164 
vertex 5 4.042886734008789 8.650766372680664 
endloop 
endfacet 
facet normal 1 0 0 
outer loop 
vertex 5 -4.746875762939453 8.96626091003418 
vertex 5 4.042886734008789 8.650766372680664 
vertex 5 4.01701545715332 8.807758331298828 
endloop 
endfacet 
facet normal 0.9999999999999999 0 0 
outer loop 
vertex 5 4.687722206115723 0.7420520782470703 
vertex 5 4.723074913024902 2.1323013305664062 
vertex 5 -4.746875762939453 8.96626091003418 
endloop 
endfacet 
facet normal 0.9999999999999999 0 0 
outer loop 
vertex 5 -4.746875762939453 8.96626091003418 
vertex 5 4.723074913024902 2.1323013305664062 
vertex 5 4.742794036865234 3.522859573364258 
endloop 
endfacet 
facet normal 1 0 0 
outer loop 
vertex 5 -4.746875762939453 8.96626091003418 
vertex 5 4.742794036865234 3.522859573364258 
vertex 5 4.746875762939453 4.913551330566406 
endloop 
endfacet 
facet normal 1 0 0 
outer loop 
vertex 5 4.003124237060547 -8.96626091003418 
vertex 5 4.147679328918457 -7.583096504211426 
vertex 5 -4.746875762939453 -8.96626091003418 
endloop 
endfacet 
facet normal 1 0 0 
outer loop 
vertex 5 -4.746875762939453 -8.96626091003418 
vertex 5 4.147679328918457 -7.583096504211426 
vertex 5 4.276673316955566 -6.198393821716309 
endloop 
endfacet 
facet normal 1 0 0 
outer loop 
vertex 5 -4.746875762939453 -8.96626091003418 
vertex 5 4.276673316955566 -6.198393821716309 
vertex 5 4.390089988708496 -4.812329292297363 
endloop 
endfacet 
facet normal 1 0 0 
outer loop 
vertex 5 4.390089988708496 -4.812329292297363 
vertex 5 4.487914085388184 -3.425076484680176 
vertex 5 -4.746875762939453 -8.96626091003418 
endloop 
endfacet 
facet normal 0.9999999999999999 0 0 
outer loop 
vertex 5 -4.746875762939453 -8.96626091003418 
vertex 5 4.487914085388184 -3.425076484680176 
vertex 5 4.570134162902832 -2.0368118286132812 
endloop 
endfacet 
facet normal 1 0 0 
outer loop 
vertex 5 -4.746875762939453 -8.96626091003418 
vertex 5 4.570134162902832 -2.0368118286132812 
vertex 5 -4.746875762939453 8.96626091003418 
endloop 
endfacet 
facet normal 1 0 0 
outer loop 
vertex 5 -4.746875762939453 8.96626091003418 
vertex 5 4.570134162902832 -2.0368118286132812 
vertex 5 4.636739730834961 -0.6477108001708984 
endloop 
endfacet 
facet normal 0.9999999999999999 0 0 
outer loop 
vertex 5 -4.746875762939453 8.96626091003418 
vertex 5 4.636739730834961 -0.6477108001708984 
vertex 5 4.687722206115723 0.7420520782470703 
endloop 
endfacet 
facet normal 1 0 0 
outer loop 
vertex 5 4.746875762939453 4.913551330566406 
vertex 5 4.738250732421875 5.30279541015625 
vertex 5 -4.746875762939453 8.96626091003418 
endloop 
endfacet 
facet normal 1 0 0 
outer loop 
vertex 5 -4.746875762939453 8.96626091003418 
vertex 5 4.738250732421875 5.30279541015625 
vertex 5 4.714479446411133 5.691410064697266 
endloop 
endfacet 
facet normal 1 0 0 
outer loop 
vertex 5 -4.746875762939453 8.96626091003418 
vertex 5 4.714479446411133 5.691410064697266 
vertex 5 4.675600051879883 6.078804016113281 
endloop 
endfacet 
facet normal 1 0 0 
outer loop 
vertex 5 4.469005584716797 7.227811813354492 
vertex 5 4.370505332946777 7.604488372802734 
vertex 5 -4.746875762939453 8.96626091003418 
endloop 
endfacet 
facet normal 0.9999999999999999 0 0 
outer loop 
vertex 5 -4.746875762939453 8.96626091003418 
vertex 5 4.370505332946777 7.604488372802734 
vertex 5 4.257415771484375 7.977043151855469 
endloop 
endfacet 
facet normal 1 0 0 
outer loop 
vertex 5 -4.746875762939453 8.96626091003418 
vertex 5 4.257415771484375 7.977043151855469 
vertex 5 4.129909515380859 8.344913482666016 
endloop 
endfacet 
facet normal 0.9999999999999999 0 0 
outer loop 
vertex 5 4.675600051879883 6.078804016113281 
vertex 5 4.621668815612793 6.464393615722656 
vertex 5 -4.746875762939453 8.96626091003418 
endloop 
endfacet 
facet normal 1 0 0 
outer loop 
vertex 5 -4.746875762939453 8.96626091003418 
vertex 5 4.621668815612793 6.464393615722656 
vertex 5 4.552769660949707 6.847589492797852 
endloop 
endfacet 
facet normal 1 0 0 
outer loop 
vertex 5 -4.746875762939453 8.96626091003418 
vertex 5 4.552769660949707 6.847589492797852 
vertex 5 4.469005584716797 7.227811813354492 
endloop 
endfacet 
endsolid