<?xml version="1.0" encoding="utf-8"?>
<!-- Generator: Adobe Illustrator 18.1.0, SVG Export Plug-In . SVG Version: 6.00 Build 0)  -->
<!DOCTYPE svg PUBLIC "-//W3C//DTD SVG 1.1//EN" "http://www.w3.org/Graphics/SVG/1.1/DTD/svg11.dtd">
<svg version="1.1" id="Layer_1" xmlns="http://www.w3.org/2000/svg" xmlns:xlink="http://www.w3.org/1999/xlink" x="0px" y="0px"
	 viewBox="0 0 288 288" enable-background="new 0 0 288 288" xml:space="preserve">
<path fill="#FFFFFF" d="M289.3,216.8v-16l-14.8,14.8l-38.2-38.2l23.5-23.5l29.5,29.5v-16l-21.5-21.5l21.5-21.5v-19.9L253,68
	l23.5-23.5l12.8,12.8v-16l-4.8-4.8l4.8-4.8v-16l-12.8,12.8L248,0h-16l36.5,36.5L245,60l-38.2-38.2L228.5,0h-16l-13.7,13.7L185,0h-16
	l21.8,21.8l-23.5,23.5L129,7l7-7h-30l7,7L89.5,30.5L59.1,0H27.5L11.8,15.7L0,3.9v16l3.8,3.8L0,27.5v16l11.8-11.8L50,70L26.5,93.4
	L0,66.9v16l18.5,18.5L0,120v25.9l33.3,33.3L9.8,202.7L0,192.8v16l1.8,1.8L0,212.5v16l9.8-9.8L48,256.9l-23.5,23.5L0,255.8v16
	L16.2,288h16.9l23-23l23,23h16L64,256.9l23.5-23.5l38.2,38.2L109.5,288h16l8.3-8.3l8.3,8.3h16l-16.3-16.3l23.5-23.5l38.2,38.2
	l-1.5,1.5h19.1l-1.5-1.5l23.5-23.5l25,25h16l-33-33l23.5-23.5l14.8,14.8v-16l-6.8-6.8L289.3,216.8z M228.3,169.2L190.1,131
	l23.5-23.5l38.2,38.2L228.3,169.2z M112.3,116.2l23.5-23.5L174,131l-23.5,23.5L112.3,116.2z M142.5,162.5L119.1,186l-38.2-38.2
	l23.5-23.5L142.5,162.5z M182,139l38.2,38.2l-23.5,23.5l-38.2-38.2L182,139z M283.3,114.3l-23.5,23.5l-38.2-38.2L245,76L283.3,114.3
	z M198.8,29.8L237,68l-23.5,23.5l-38.2-38.2L198.8,29.8z M205.5,99.5L182,123l-38.2-38.2l23.5-23.5L205.5,99.5z M121,15l38.2,38.2
	l-23.5,23.5L97.5,38.5L121,15z M127.8,84.7l-23.5,23.5L66.1,70l23.5-23.5L127.8,84.7z M19.8,23.7L43.3,0.2l38.2,38.2L58,61.9
	L19.8,23.7z M58,78l38.2,38.2l-23.5,23.5l-38.2-38.2L58,78z M3.1,132.9l23.5-23.5l38.2,38.2l-23.5,23.5L3.1,132.9z M56.1,248.9
	l-38.2-38.2l23.5-23.5l38.2,38.2L56.1,248.9z M49.3,179.2l23.5-23.5l38.2,38.2l-23.5,23.5L49.3,179.2z M133.8,263.7l-38.2-38.2
	l23.5-23.5l38.2,38.2L133.8,263.7z M127.1,194l23.5-23.5l38.2,38.2l-23.5,23.5L127.1,194z M211.6,278.5l-38.2-38.2l23.5-23.5
	l38.2,38.2L211.6,278.5z M243.1,247l-38.2-38.2l23.5-23.5l38.2,38.2L243.1,247z"/>
</svg>
