<?xml version="1.0" encoding="utf-8"?>
<!-- Generator: Adobe Illustrator 18.1.0, SVG Export Plug-In . SVG Version: 6.00 Build 0)  -->
<!DOCTYPE svg PUBLIC "-//W3C//DTD SVG 1.1//EN" "http://www.w3.org/Graphics/SVG/1.1/DTD/svg11.dtd">
<svg version="1.1" id="Layer_1" xmlns="http://www.w3.org/2000/svg" xmlns:xlink="http://www.w3.org/1999/xlink" x="0px" y="0px"
	 viewBox="0 0 288 288" enable-background="new 0 0 288 288" xml:space="preserve">
<g>
	<line fill="none" stroke="#FFFFFF" stroke-miterlimit="10" x1="362.9" y1="-1437.7" x2="-1117.4" y2="42.7"/>
	<line fill="none" stroke="#FFFFFF" stroke-miterlimit="10" x1="409.1" y1="-1391.4" x2="-1071.2" y2="88.9"/>
	<line fill="none" stroke="#FFFFFF" stroke-miterlimit="10" x1="455.4" y1="-1345.1" x2="-1024.9" y2="135.2"/>
	<line fill="none" stroke="#FFFFFF" stroke-miterlimit="10" x1="501.7" y1="-1298.9" x2="-978.7" y2="181.5"/>
	<line fill="none" stroke="#FFFFFF" stroke-miterlimit="10" x1="547.9" y1="-1252.6" x2="-932.4" y2="227.7"/>
	<line fill="none" stroke="#FFFFFF" stroke-miterlimit="10" x1="594.2" y1="-1206.3" x2="-886.1" y2="274"/>
	<line fill="none" stroke="#FFFFFF" stroke-miterlimit="10" x1="640.4" y1="-1160.1" x2="-839.9" y2="320.2"/>
	<line fill="none" stroke="#FFFFFF" stroke-miterlimit="10" x1="686.7" y1="-1113.8" x2="-793.6" y2="366.5"/>
	<line fill="none" stroke="#FFFFFF" stroke-miterlimit="10" x1="733" y1="-1067.6" x2="-747.4" y2="412.8"/>
	<line fill="none" stroke="#FFFFFF" stroke-miterlimit="10" x1="779.2" y1="-1021.3" x2="-701.1" y2="459"/>
	<line fill="none" stroke="#FFFFFF" stroke-miterlimit="10" x1="825.5" y1="-975" x2="-654.8" y2="505.3"/>
	<line fill="none" stroke="#FFFFFF" stroke-miterlimit="10" x1="871.7" y1="-928.8" x2="-608.6" y2="551.5"/>
	<line fill="none" stroke="#FFFFFF" stroke-miterlimit="10" x1="918" y1="-882.5" x2="-562.3" y2="597.8"/>
	<line fill="none" stroke="#FFFFFF" stroke-miterlimit="10" x1="964.3" y1="-836.3" x2="-516.1" y2="644.1"/>
	<line fill="none" stroke="#FFFFFF" stroke-miterlimit="10" x1="1010.5" y1="-790" x2="-469.8" y2="690.3"/>
	<line fill="none" stroke="#FFFFFF" stroke-miterlimit="10" x1="1056.8" y1="-743.7" x2="-423.5" y2="736.6"/>
	<line fill="none" stroke="#FFFFFF" stroke-miterlimit="10" x1="1103" y1="-697.5" x2="-377.3" y2="782.8"/>
	<line fill="none" stroke="#FFFFFF" stroke-miterlimit="10" x1="1149.3" y1="-651.2" x2="-331" y2="829.1"/>
	<line fill="none" stroke="#FFFFFF" stroke-miterlimit="10" x1="1195.6" y1="-605" x2="-284.8" y2="875.4"/>
	<line fill="none" stroke="#FFFFFF" stroke-miterlimit="10" x1="1241.8" y1="-558.7" x2="-238.5" y2="921.6"/>
	<line fill="none" stroke="#FFFFFF" stroke-miterlimit="10" x1="1288.1" y1="-512.4" x2="-192.2" y2="967.9"/>
	<line fill="none" stroke="#FFFFFF" stroke-miterlimit="10" x1="1334.3" y1="-466.2" x2="-146" y2="1014.1"/>
	<line fill="none" stroke="#FFFFFF" stroke-miterlimit="10" x1="1380.6" y1="-419.9" x2="-99.7" y2="1060.4"/>
	<line fill="none" stroke="#FFFFFF" stroke-miterlimit="10" x1="1426.9" y1="-373.7" x2="-53.5" y2="1106.7"/>
	<line fill="none" stroke="#FFFFFF" stroke-miterlimit="10" x1="1473.1" y1="-327.4" x2="-7.2" y2="1152.9"/>
	<line fill="none" stroke="#FFFFFF" stroke-miterlimit="10" x1="1519.4" y1="-281.1" x2="39.1" y2="1199.2"/>
	<line fill="none" stroke="#FFFFFF" stroke-miterlimit="10" x1="1565.6" y1="-234.9" x2="85.3" y2="1245.4"/>
	<line fill="none" stroke="#FFFFFF" stroke-miterlimit="10" x1="1611.9" y1="-188.6" x2="131.6" y2="1291.7"/>
	<line fill="none" stroke="#FFFFFF" stroke-miterlimit="10" x1="1658.2" y1="-142.4" x2="177.8" y2="1338"/>
	<line fill="none" stroke="#FFFFFF" stroke-miterlimit="10" x1="1704.4" y1="-96.1" x2="224.1" y2="1384.2"/>
	<line fill="none" stroke="#FFFFFF" stroke-miterlimit="10" x1="1750.7" y1="-49.8" x2="270.4" y2="1430.5"/>
	<line fill="none" stroke="#FFFFFF" stroke-miterlimit="10" x1="1797" y1="-3.6" x2="316.6" y2="1476.7"/>
	<line fill="none" stroke="#FFFFFF" stroke-miterlimit="10" x1="1843.2" y1="42.7" x2="362.9" y2="1523"/>
</g>
<g>
	<line fill="none" stroke="#FFFFFF" stroke-miterlimit="10" x1="1043.2" y1="54.6" x2="35.7" y2="-952.9"/>
	<line fill="none" stroke="#FFFFFF" stroke-miterlimit="10" x1="1011.8" y1="86.1" x2="4.2" y2="-921.5"/>
	<line fill="none" stroke="#FFFFFF" stroke-miterlimit="10" x1="980.3" y1="117.6" x2="-27.3" y2="-890"/>
	<line fill="none" stroke="#FFFFFF" stroke-miterlimit="10" x1="948.8" y1="149.1" x2="-58.8" y2="-858.5"/>
	<line fill="none" stroke="#FFFFFF" stroke-miterlimit="10" x1="917.3" y1="180.6" x2="-90.3" y2="-827"/>
	<line fill="none" stroke="#FFFFFF" stroke-miterlimit="10" x1="885.8" y1="212" x2="-121.7" y2="-795.5"/>
	<line fill="none" stroke="#FFFFFF" stroke-miterlimit="10" x1="854.3" y1="243.5" x2="-153.2" y2="-764"/>
	<line fill="none" stroke="#FFFFFF" stroke-miterlimit="10" x1="822.8" y1="275" x2="-184.7" y2="-732.5"/>
	<line fill="none" stroke="#FFFFFF" stroke-miterlimit="10" x1="791.4" y1="306.5" x2="-216.2" y2="-701.1"/>
	<line fill="none" stroke="#FFFFFF" stroke-miterlimit="10" x1="759.9" y1="338" x2="-247.7" y2="-669.6"/>
	<line fill="none" stroke="#FFFFFF" stroke-miterlimit="10" x1="728.4" y1="369.5" x2="-279.2" y2="-638.1"/>
	<line fill="none" stroke="#FFFFFF" stroke-miterlimit="10" x1="696.9" y1="401" x2="-310.7" y2="-606.6"/>
	<line fill="none" stroke="#FFFFFF" stroke-miterlimit="10" x1="665.4" y1="432.4" x2="-342.1" y2="-575.1"/>
	<line fill="none" stroke="#FFFFFF" stroke-miterlimit="10" x1="633.9" y1="463.9" x2="-373.6" y2="-543.6"/>
	<line fill="none" stroke="#FFFFFF" stroke-miterlimit="10" x1="602.4" y1="495.4" x2="-405.1" y2="-512.1"/>
	<line fill="none" stroke="#FFFFFF" stroke-miterlimit="10" x1="570.9" y1="526.9" x2="-436.6" y2="-480.6"/>
	<line fill="none" stroke="#FFFFFF" stroke-miterlimit="10" x1="539.5" y1="558.4" x2="-468.1" y2="-449.2"/>
	<line fill="none" stroke="#FFFFFF" stroke-miterlimit="10" x1="508" y1="589.9" x2="-499.6" y2="-417.7"/>
	<line fill="none" stroke="#FFFFFF" stroke-miterlimit="10" x1="476.5" y1="621.4" x2="-531.1" y2="-386.2"/>
	<line fill="none" stroke="#FFFFFF" stroke-miterlimit="10" x1="445" y1="652.8" x2="-562.6" y2="-354.7"/>
	<line fill="none" stroke="#FFFFFF" stroke-miterlimit="10" x1="413.5" y1="684.3" x2="-594" y2="-323.2"/>
	<line fill="none" stroke="#FFFFFF" stroke-miterlimit="10" x1="382" y1="715.8" x2="-625.5" y2="-291.7"/>
	<line fill="none" stroke="#FFFFFF" stroke-miterlimit="10" x1="350.5" y1="747.3" x2="-657" y2="-260.2"/>
	<line fill="none" stroke="#FFFFFF" stroke-miterlimit="10" x1="319.1" y1="778.8" x2="-688.5" y2="-228.8"/>
	<line fill="none" stroke="#FFFFFF" stroke-miterlimit="10" x1="287.6" y1="810.3" x2="-720" y2="-197.3"/>
	<line fill="none" stroke="#FFFFFF" stroke-miterlimit="10" x1="256.1" y1="841.8" x2="-751.5" y2="-165.8"/>
	<line fill="none" stroke="#FFFFFF" stroke-miterlimit="10" x1="224.6" y1="873.3" x2="-783" y2="-134.3"/>
	<line fill="none" stroke="#FFFFFF" stroke-miterlimit="10" x1="193.1" y1="904.7" x2="-814.4" y2="-102.8"/>
	<line fill="none" stroke="#FFFFFF" stroke-miterlimit="10" x1="161.6" y1="936.2" x2="-845.9" y2="-71.3"/>
	<line fill="none" stroke="#FFFFFF" stroke-miterlimit="10" x1="130.1" y1="967.7" x2="-877.4" y2="-39.8"/>
	<line fill="none" stroke="#FFFFFF" stroke-miterlimit="10" x1="98.7" y1="999.2" x2="-908.9" y2="-8.4"/>
	<line fill="none" stroke="#FFFFFF" stroke-miterlimit="10" x1="67.2" y1="1030.7" x2="-940.4" y2="23.1"/>
	<line fill="none" stroke="#FFFFFF" stroke-miterlimit="10" x1="35.7" y1="1062.2" x2="-971.9" y2="54.6"/>
</g>
</svg>
